<svg width="60" height="60" viewBox="0 0 60 60" fill="none" xmlns="http://www.w3.org/2000/svg">
<path d="M41.9963 12.8318C41.9963 6.30599 36.4349 1 29.595 1C22.7552 1 17.1938 6.30599 17.1938 12.8318C17.1938 17.5279 20.0704 21.6141 24.2255 23.5047V30.3964C24.2255 30.7014 24.3533 30.9453 24.5451 31.1893L26.5906 33.1409L24.5451 35.0925C24.3533 35.2755 24.2255 35.5804 24.2255 35.8854V38.3859C24.2255 38.6908 24.3533 38.9348 24.5451 39.1788L26.5906 41.1304L24.5451 43.082C24.3533 43.265 24.2255 43.5699 24.2255 43.8749V47.2292C24.2255 47.5342 24.3533 47.7781 24.5451 47.9611L28.828 52.2913C28.9558 52.4132 29.2754 52.5352 29.595 52.5352C29.9147 52.5352 30.2343 52.4132 30.4261 52.1693L34.7089 47.8391C34.9007 47.6561 35.0286 47.3512 35.0286 47.1072V23.5657C39.1836 21.6141 41.9963 17.5279 41.9963 12.8318ZM32.7273 46.7413L29.595 49.9127L26.4628 46.7413V44.2408L28.9558 41.8622C29.4033 41.4353 29.4033 40.7645 28.9558 40.3375L26.4628 37.898V36.3123L28.9558 33.9338C29.4033 33.5068 29.4033 32.836 28.9558 32.409L26.4628 29.9695V24.2976C27.4856 24.5415 28.5083 24.6635 29.595 24.6635C30.6818 24.6635 31.7045 24.5415 32.7273 24.2976V46.7413ZM29.595 22.5289C23.9698 22.5289 19.4312 18.1987 19.4312 12.8318C19.4312 7.46477 23.9698 3.19558 29.595 3.19558C35.2203 3.19558 39.7589 7.52576 39.7589 12.8927C39.7589 18.2597 35.2203 22.5289 29.595 22.5289Z" fill="#3C74FE" stroke="#3C74FE" stroke-width="0.36"/>
<path d="M29.595 6.06189C27.2298 6.06189 25.3121 7.89154 25.3121 10.1481C25.3121 12.4047 27.2298 14.2343 29.595 14.2343C31.9602 14.2343 33.8779 12.4047 33.8779 10.1481C33.8779 7.89154 31.9602 6.06189 29.595 6.06189ZM29.595 12.0997C28.4444 12.0997 27.5495 11.2459 27.5495 10.1481C27.5495 9.05032 28.4444 8.19648 29.595 8.19648C30.7457 8.19648 31.6406 9.05032 31.6406 10.1481C31.6406 11.2459 30.7457 12.0997 29.595 12.0997Z" fill="#3C74FE" stroke="#3C74FE" stroke-width="0.36"/>
<path d="M52.6077 21.4922V29.4207H40.2065C39.5672 29.4207 39.0558 29.9086 39.0558 30.5185C39.0558 31.1284 39.5672 31.6163 40.2065 31.6163H53.7583C54.3975 31.6163 54.9089 31.1284 54.9089 30.5185V21.4922C57.2741 21.0043 59 18.9917 59 16.6131C59 13.8686 56.6349 11.6121 53.7583 11.6121C50.8817 11.6121 48.5166 13.8686 48.5166 16.6131C48.5166 19.0526 50.3064 21.0043 52.6077 21.4922ZM53.7583 13.8076C55.3564 13.8076 56.6988 15.0884 56.6988 16.6131C56.6988 18.1378 55.3564 19.4186 53.7583 19.4186C52.1602 19.4186 50.8178 18.1378 50.8178 16.6131C50.8178 15.0884 52.1602 13.8076 53.7583 13.8076Z" fill="#3C74FE" stroke="#3C74FE" stroke-width="0.36"/>
<path d="M18.9836 29.4207H6.58243V21.4922C8.94761 21.0043 10.6736 18.9917 10.6736 16.6131C10.6736 13.8686 8.30837 11.6121 5.43181 11.6121C2.55524 11.6121 0.190063 13.8686 0.190063 16.6741C0.190063 19.0527 1.916 21.0653 4.28118 21.5532V30.5185C4.28118 31.1284 4.79257 31.6163 5.43181 31.6163H18.9836C19.6229 31.6163 20.1343 31.1284 20.1343 30.5185C20.1343 29.9086 19.6229 29.4207 18.9836 29.4207ZM2.49132 16.6741C2.49132 15.1494 3.83371 13.8686 5.43181 13.8686C7.0299 13.8686 8.3723 15.1494 8.3723 16.6741C8.3723 18.1988 7.0299 19.4796 5.43181 19.4796C3.83371 19.4796 2.49132 18.1988 2.49132 16.6741Z" fill="#3C74FE" stroke="#3C74FE" stroke-width="0.36"/>
<path d="M18.9836 38.9957H5.43181C4.79257 38.9957 4.28118 39.4836 4.28118 40.0935V49.0588C1.916 49.5467 0.190063 51.5593 0.190063 53.9379C0.190063 56.6824 2.55524 58.9389 5.43181 58.9389C8.30837 58.9389 10.6736 56.6824 10.6736 53.9379C10.6736 51.5593 8.94761 49.5467 6.58243 49.0588V41.1303H18.9836C19.6229 41.1303 20.1343 40.6424 20.1343 40.0325C20.1343 39.4226 19.6229 38.9957 18.9836 38.9957ZM8.3723 53.9379C8.3723 55.4626 7.0299 56.7434 5.43181 56.7434C3.83371 56.7434 2.49132 55.4626 2.49132 53.9379C2.49132 52.4132 3.83371 51.1324 5.43181 51.1324C7.0299 51.1324 8.3723 52.4132 8.3723 53.9379Z" fill="#3C74FE" stroke="#3C74FE" stroke-width="0.36"/>
<path d="M54.9089 49.0588V40.0935C54.9089 39.4836 54.3975 38.9957 53.7583 38.9957H40.2065C39.5672 38.9957 39.0558 39.4836 39.0558 40.0935C39.0558 40.7034 39.5672 41.1913 40.2065 41.1913H52.6077V49.1198C50.2425 49.6077 48.5166 51.6203 48.5166 53.9989C48.5166 56.7434 50.8817 58.9999 53.7583 58.9999C56.6349 58.9999 59 56.7434 59 53.9989C59 51.5593 57.2741 49.6077 54.9089 49.0588ZM53.7583 56.7434C52.1602 56.7434 50.8178 55.4626 50.8178 53.9379C50.8178 52.4132 52.1602 51.1324 53.7583 51.1324C55.3564 51.1324 56.6988 52.4132 56.6988 53.9379C56.6988 55.4626 55.4203 56.7434 53.7583 56.7434Z" fill="#3C74FE" stroke="#3C74FE" stroke-width="0.36"/>
</svg>
