<svg width="60" height="60" viewBox="0 0 60 60" fill="none" xmlns="http://www.w3.org/2000/svg">
<path d="M22.8216 11.7167C25.7703 11.7167 28.1684 9.35754 28.1684 6.4597C28.1684 6.38255 28.1491 6.31217 28.145 6.23638C34.2517 5.82221 40.2221 7.63319 45.0155 11.4149C55.4792 19.6631 57.1642 34.741 48.7751 45.0263C48.5356 45.32 48.5837 45.745 48.8797 45.9778C49.0077 46.0779 49.1592 46.128 49.3106 46.128C49.5116 46.128 49.7126 46.0414 49.8502 45.8735C58.7129 35.0063 56.9316 19.0729 45.8773 10.3578C40.7714 6.33112 34.4086 4.41592 27.8986 4.89371C27.2157 2.76059 25.2114 1.20001 22.8202 1.20001C19.8714 1.20001 17.472 3.55916 17.472 6.45835C17.4734 9.35754 19.8728 11.7167 22.8216 11.7167ZM22.8216 2.55486C25.0104 2.55486 26.7917 4.30629 26.7917 6.4597C26.7917 8.61176 25.0104 10.3632 22.8216 10.3632C20.6313 10.3632 18.85 8.61176 18.85 6.4597C18.85 4.30494 20.6313 2.55486 22.8216 2.55486Z" fill="#3C74FE" stroke="#3C74FE" stroke-width="1.2"/>
<path d="M14.4108 49.6418C19.009 53.2666 24.6258 55.1982 30.4506 55.1982C31.0935 55.1982 31.7419 55.1535 32.3903 55.1061C33.0732 57.2393 35.079 58.8 37.4676 58.8C40.4178 58.8 42.816 56.4421 42.816 53.5414C42.816 50.6407 40.4164 48.2855 37.4676 48.2855C34.5201 48.2855 32.1191 50.6434 32.1191 53.5414C32.1191 53.6185 32.1398 53.6889 32.1439 53.7661C26.0411 54.1789 20.0676 52.3679 15.2726 48.5873C4.80984 40.3387 3.1234 25.2586 11.5129 14.9715C11.7511 14.6791 11.7029 14.2541 11.4069 14.0199C11.1109 13.7871 10.6773 13.8345 10.4391 14.1242C1.57463 24.992 3.35606 40.9248 14.4108 49.6418ZM37.4703 49.6364C39.6592 49.6364 41.4407 51.3892 41.4407 53.5414C41.4407 55.6936 39.6592 57.4464 37.4703 57.4464C35.2786 57.4464 33.4986 55.6936 33.4986 53.5414C33.4986 51.3892 35.2786 49.6364 37.4703 49.6364Z" fill="#3C74FE" stroke="#3C74FE" stroke-width="1.2"/>
<path d="M29.7553 13.872C29.3355 13.872 28.9919 14.1851 28.9919 14.571V30.0344C28.9919 30.0652 29.0072 30.0917 29.0133 30.1225C29.0194 30.1812 29.0255 30.2399 29.05 30.2972C29.0759 30.3559 29.1187 30.4062 29.1614 30.4552C29.1797 30.4775 29.1874 30.5027 29.2087 30.5223L29.2148 30.5293L35.7446 36.6995C35.8942 36.8421 36.0942 36.912 36.2927 36.912C36.4835 36.912 36.6759 36.8463 36.824 36.7149C37.1263 36.4451 37.1339 36.0048 36.8423 35.7266L30.5187 29.7506V14.5696C30.5187 14.1851 30.1751 13.872 29.7553 13.872Z" fill="#3C74FE" stroke="#3C74FE" stroke-width="1.2"/>
</svg>
