<svg width="60" height="60" viewBox="0 0 60 60" fill="none" xmlns="http://www.w3.org/2000/svg">
<path d="M12.2736 3.00001C17.3874 3.00001 21.5472 7.15981 21.5472 12.2736C21.5472 13.1142 21.4338 13.9494 21.2124 14.754C21.1224 15.0816 21.0126 15.4056 20.91 15.6648L20.6364 16.2858L12.2736 31.7388L3.92341 16.311L3.64441 15.6792C3.52741 15.3804 3.42301 15.069 3.33481 14.754C3.11341 13.9494 3.00001 13.1142 3.00001 12.2736C3.00001 7.15981 7.15981 3.00001 12.2736 3.00001ZM12.2736 1.20001C6.15721 1.20001 1.20001 6.15721 1.20001 12.2736C1.20001 13.2996 1.34041 14.2914 1.60141 15.2346C1.70581 15.6126 1.83001 15.9816 1.97221 16.3416L2.30881 17.1048L11.22 33.572C11.6737 34.4106 12.877 34.4105 13.3308 33.572L22.2546 17.0796L22.557 16.392C22.7082 16.0158 22.8378 15.6306 22.9476 15.2364C23.2086 14.2932 23.349 13.3014 23.349 12.2754C23.3472 6.15721 18.39 1.20001 12.2736 1.20001Z" fill="#3C74FE" stroke="#3C74FE" stroke-width="0.6"/>
<path d="M12.2737 9.07316C13.9819 9.07316 15.3733 10.4628 15.3733 12.1728C15.3733 13.8828 13.9819 15.2724 12.2737 15.2724C10.5655 15.2724 9.17414 13.8828 9.17414 12.1728C9.17414 10.4628 10.5637 9.07316 12.2737 9.07316ZM12.2737 7.27316C9.56835 7.27316 7.37415 9.46736 7.37415 12.1728C7.37415 14.8782 9.56835 17.0724 12.2737 17.0724C14.9791 17.0724 17.1733 14.8782 17.1733 12.1728C17.1733 9.46736 14.9791 7.27316 12.2737 7.27316Z" fill="#3C74FE" stroke="#3C74FE" stroke-width="0.6"/>
<path d="M47.7264 26.2794C52.8402 26.2794 57 30.4392 57 35.553C57 36.3936 56.8866 37.2288 56.6652 38.0334C56.5752 38.361 56.4654 38.685 56.3628 38.9442L56.0892 39.5652L47.7264 55.0182L39.3762 39.5904L39.0972 38.9604C38.9802 38.6616 38.8758 38.3502 38.7876 38.0352C38.5644 37.2306 38.4528 36.3954 38.4528 35.5548C38.4528 30.4392 42.6126 26.2794 47.7264 26.2794ZM47.7264 24.4794C41.61 24.4794 36.6528 29.4366 36.6528 35.553C36.6528 36.579 36.7932 37.5708 37.0542 38.514C37.1586 38.892 37.2828 39.261 37.425 39.621L37.7616 40.3842L46.671 56.8495C47.1248 57.6881 48.3281 57.6881 48.7818 56.8495L57.7056 40.3572L58.008 39.6696C58.1592 39.2934 58.2888 38.9082 58.3986 38.514C58.6596 37.5708 58.8 36.5772 58.8 35.553C58.8 29.4366 53.8428 24.4794 47.7264 24.4794Z" fill="#3C74FE" stroke="#3C74FE" stroke-width="0.6"/>
<path d="M47.7263 32.3526C49.4345 32.3526 50.8259 33.7422 50.8259 35.4522C50.8259 37.1622 49.4363 38.5518 47.7263 38.5518C46.0163 38.5518 44.6267 37.1622 44.6267 35.4522C44.6267 33.7422 46.0181 32.3526 47.7263 32.3526ZM47.7263 30.5526C45.0209 30.5526 42.8267 32.7468 42.8267 35.4522C42.8267 38.1576 45.0209 40.3518 47.7263 40.3518C50.4317 40.3518 52.6259 38.1576 52.6259 35.4522C52.6259 32.7468 50.4317 30.5526 47.7263 30.5526Z" fill="#3C74FE" stroke="#3C74FE" stroke-width="0.6"/>
<path d="M42.2617 47.55H28.5991C27.9364 47.55 27.3991 47.0128 27.3991 46.35V26.1978C27.3991 25.5351 26.8619 24.9978 26.1991 24.9978H17.1733V23.1978H27.9991C28.6619 23.1978 29.1991 23.7351 29.1991 24.3978V44.55C29.1991 45.2128 29.7364 45.75 30.3991 45.75H42.2617V47.55Z" fill="#3C74FE" stroke="#3C74FE" stroke-width="0.6"/>
</svg>
