<svg width="443" height="32" viewBox="0 0 443 32" fill="none" xmlns="http://www.w3.org/2000/svg">
<g clip-path="url(#clip0)">
<path fill-rule="evenodd" clip-rule="evenodd" d="M353.875 1.5625H382.125C383.159 1.5625 384 2.40375 384 3.4375V22.0625C384 23.0963 383.159 23.9375 382.125 23.9375H353.875C352.841 23.9375 352 23.0963 352 22.0625V3.4375C352 2.40375 352.841 1.5625 353.875 1.5625ZM372.937 28.5625H378C378.517 28.5625 378.937 28.9825 378.937 29.5C378.937 30.0175 378.517 30.4375 378 30.4375H358C357.482 30.4375 357.062 30.0175 357.062 29.5C357.062 28.9825 357.482 28.5625 358 28.5625H363.062V25.8125H372.937V28.5625ZM363.242 10.0052C363.007 10.0052 362.808 10.0869 362.645 10.2503C362.482 10.4137 362.4 10.6099 362.4 10.8388V14.3532C362.4 14.5878 362.482 14.7864 362.645 14.9499C362.808 15.1133 363.007 15.1951 363.242 15.1951C363.476 15.1951 363.673 15.1133 363.834 14.9499C363.995 14.7865 364.075 14.5878 364.075 14.3532V10.8388C364.075 10.6098 363.994 10.4137 363.83 10.2503C363.667 10.0869 363.47 10.0052 363.242 10.0052ZM370.589 5.77977L370.009 6.85027C370.592 7.15036 371.058 7.56828 371.407 8.10496C371.755 8.64205 371.93 9.22887 371.93 9.86636H364.37C364.37 9.22872 364.544 8.64193 364.893 8.10496C365.242 7.56828 365.71 7.15036 366.299 6.85027L365.718 5.77977C365.68 5.7089 365.694 5.65473 365.759 5.61634C365.83 5.58354 365.884 5.60009 365.923 5.66525L366.511 6.74431C367.029 6.51541 367.576 6.40072 368.154 6.40072C368.731 6.40072 369.279 6.51539 369.797 6.74431L370.385 5.66525C370.423 5.60009 370.478 5.58339 370.549 5.61634C370.614 5.65455 370.628 5.7089 370.589 5.77977ZM366.429 8.50154C366.516 8.50154 366.591 8.47023 366.654 8.40733C366.717 8.34472 366.748 8.26991 366.748 8.18264C366.748 8.09551 366.717 8.02085 366.654 7.95795C366.591 7.89534 366.516 7.86404 366.429 7.86404C366.342 7.86404 366.269 7.89534 366.209 7.95795C366.149 8.02071 366.119 8.09551 366.119 8.18264C366.119 8.27006 366.149 8.34472 366.209 8.40733C366.269 8.47023 366.342 8.50154 366.429 8.50154ZM369.878 8.50154C369.965 8.50154 370.039 8.47023 370.099 8.40733C370.159 8.34472 370.189 8.26991 370.189 8.18264C370.189 8.09551 370.159 8.02085 370.099 7.95795C370.039 7.89534 369.965 7.86404 369.878 7.86404C369.791 7.86404 369.716 7.89534 369.653 7.95795C369.591 8.02071 369.559 8.09551 369.559 8.18264C369.559 8.27006 369.591 8.34472 369.653 8.40733C369.716 8.47023 369.791 8.50154 369.878 8.50154ZM364.402 15.6036C364.402 15.8545 364.489 16.0669 364.664 16.2411C364.838 16.4154 365.05 16.5025 365.301 16.5025H365.906L365.914 18.358C365.914 18.5923 365.996 18.7913 366.159 18.9548C366.323 19.1182 366.519 19.1999 366.748 19.1999C366.982 19.1999 367.181 19.1182 367.344 18.9548C367.508 18.7913 367.589 18.5924 367.589 18.358V16.5027H368.717V18.358C368.717 18.5923 368.799 18.7913 368.962 18.9548C369.126 19.1182 369.325 19.1999 369.559 19.1999C369.793 19.1999 369.992 19.1182 370.156 18.9548C370.319 18.7913 370.401 18.5924 370.401 18.358V16.5027H371.014C371.259 16.5027 371.469 16.4156 371.643 16.2413C371.817 16.067 371.905 15.8546 371.905 15.6038V10.1603H364.402V15.6036ZM372.477 10.2463C372.641 10.0857 372.837 10.0052 373.066 10.0052C373.3 10.0052 373.499 10.0857 373.662 10.2463C373.826 10.4071 373.908 10.6047 373.908 10.8388V14.3532C373.908 14.5878 373.826 14.7864 373.662 14.9499C373.499 15.1133 373.3 15.1951 373.066 15.1951C372.837 15.1951 372.641 15.1133 372.477 14.9499C372.314 14.7864 372.232 14.5878 372.232 14.3532V10.8388C372.232 10.6047 372.314 10.4071 372.477 10.2463Z" fill="#3C74FE"/>
</g>
<g clip-path="url(#clip1)">
<path d="M418.767 21.469C418.686 21.0465 418.523 20.5807 418.518 20.1121C418.503 18.5546 419.139 17.1959 419.931 15.9017C419.948 15.875 419.989 15.8658 420.019 15.8464C419.978 16.048 419.886 16.2091 419.803 16.3684C419.218 17.4932 418.691 18.6384 418.666 19.9372C418.651 20.6479 418.79 21.3208 419.389 21.886C419.382 21.735 419.368 21.6319 419.371 21.5242C419.387 21.0207 419.367 20.5116 419.433 20.0155C419.603 18.7645 420.056 17.6138 420.653 16.4972C421.041 15.7737 421.516 15.2499 422.31 15.0299C422.429 14.9977 422.533 14.913 422.697 14.8247C422.468 14.6811 422.298 14.5816 422.136 14.4703C421.757 14.2134 421.657 13.8443 421.86 13.4273C421.96 13.2193 422.047 12.991 422.197 12.8253C422.753 12.2104 423.04 11.5108 422.976 10.6768C422.974 10.6556 422.979 10.6354 422.983 10.6142C423.023 10.397 422.97 10.2257 422.814 10.0462C422.2 9.34481 422.251 8.60932 422.95 8.0073C423.123 7.86002 423.115 7.75416 423.038 7.55809C422.742 6.81339 422.673 6.04383 422.95 5.2798C423.182 4.64372 423.847 4.44765 424.341 4.87017C424.671 5.15553 424.913 5.51545 424.974 5.96651C425.003 6.18191 425.014 6.40007 425.031 6.61547C425.449 6.61547 425.853 6.61547 426.281 6.61547C426.281 6.50777 426.292 6.40376 426.279 6.30066C426.221 5.84408 426.391 5.45378 426.628 5.08557C427.11 4.33259 428.223 4.17426 428.778 4.81034C429.298 5.40867 429.59 6.11195 429.446 6.92845C429.393 7.22302 429.288 7.50746 429.203 7.80939C429.527 8.00914 429.76 8.30002 429.72 8.70321C429.685 9.05393 429.564 9.3936 429.492 9.74064C429.464 9.8824 429.415 10.0499 429.462 10.177C429.603 10.5691 429.786 10.9484 429.957 11.3313C430.149 11.7612 430.359 12.1855 430.543 12.6173C431.019 13.7357 431.486 14.8587 431.953 15.9808C432.135 16.4254 432.342 16.8691 432.471 17.3312C432.866 18.7534 432.949 20.2079 432.822 21.6752C432.808 21.8482 432.837 21.9302 433.013 22.001C433.366 22.1419 433.549 22.4272 433.547 22.8166C433.547 22.9749 433.51 23.137 433.536 23.2879C433.559 23.437 433.608 23.6175 433.709 23.7123C434.108 24.0713 434.741 24.0777 435.203 23.7979C435.755 23.4619 436.089 22.9464 436.457 22.36C435.469 21.5711 434.424 21.4469 433.272 21.9955C433.398 21.8639 433.527 21.6936 433.677 21.6715C434.121 21.6153 434.236 21.3051 434.34 20.9553C434.4 20.7445 434.472 20.5346 434.528 20.322C434.944 18.7359 434.662 17.2963 433.58 16.0499C433.3 15.7249 432.943 15.4681 432.621 15.1809C433.375 15.5602 433.989 16.1069 434.418 16.8296C435.335 18.3779 434.994 19.9529 434.467 21.5242C435.704 21.6107 436.13 21.7599 436.616 22.2809C436.789 22.2615 436.957 22.2542 437.119 22.2183C437.194 22.2017 437.293 22.141 437.316 22.0784C437.416 21.7912 437.517 21.5012 437.57 21.2048C437.738 20.3202 437.531 19.4659 437.283 18.6282C436.759 16.859 435.889 15.2573 434.82 13.7578C434.15 12.817 433.458 11.8827 432.892 10.8775C432.084 9.43963 431.662 7.87659 431.693 6.20308C431.705 5.60198 431.671 4.98524 431.558 4.39242C431.363 3.34855 431.013 2.34058 430.241 1.57747C428.785 0.138702 427.032 -0.316034 425.05 0.210503C424.066 0.470089 423.18 0.920223 422.621 1.8343C422.169 2.5744 421.992 3.40378 422 4.24882C422.014 5.80266 422.014 7.36754 422.175 8.90941C422.318 10.2727 422.081 11.4408 421.15 12.4672C420.778 12.8759 420.455 13.3362 420.128 13.7891C418.762 15.6697 417.88 17.7933 417.075 19.9529C416.872 20.5006 416.789 21.0584 416.977 21.6512C417.59 21.237 418.209 21.1054 418.767 21.469ZM430.62 9.49578C430.923 9.64859 431.214 9.82809 431.487 10.0297C431.59 10.107 431.626 10.2745 431.66 10.3353C431.66 10.7274 431.394 10.9051 431.126 10.756C430.716 10.5277 430.5 10.1521 430.411 9.70197C430.381 9.54273 430.475 9.42398 430.62 9.49578ZM428.35 4.10154C428.836 4.03894 429.349 4.45962 429.496 5.05243C429.205 4.62715 428.893 4.22949 428.35 4.10154ZM428.552 1.5563C428.877 1.56183 428.989 1.80944 429.086 2.05614C429.182 2.3056 428.948 2.34335 428.818 2.44644C428.786 2.46946 428.744 2.48419 428.705 2.50075C428.27 2.68578 428.158 2.61214 428.162 2.13899C428.165 1.69346 428.256 1.55354 428.552 1.5563ZM425.058 5.03678C424.736 4.77628 424.414 4.51577 424.119 4.27644C424.464 4.24422 424.904 4.57837 425.058 5.03678ZM423.624 29.8779C423.728 30.3851 423.477 30.7736 423.028 31.0755C422.881 31.174 422.745 31.2964 422.623 31.4262C422.086 31.9868 421.431 32.1 420.711 31.9242C420.335 31.8322 419.961 31.7171 419.602 31.5717C418.24 31.0249 416.83 30.6705 415.397 30.3796C414.905 30.2829 414.416 30.1476 413.942 29.9801C413.271 29.7417 413.056 29.3514 413.196 28.6591C413.398 27.6595 413.407 26.6598 413.247 25.6518C413.12 24.8638 413.317 24.5831 414.09 24.3806C414.384 24.3032 414.678 24.214 414.976 24.1624C415.527 24.0639 415.937 23.773 416.261 23.3284C416.545 22.9381 416.818 22.5331 417.153 22.1897C417.746 21.5804 418.274 21.5555 418.83 22.1815C419.447 22.8801 420.009 23.6322 420.53 24.4054C421.403 25.7015 422.143 27.0878 423.153 28.2974C423.515 28.73 423.682 29.2492 423.624 29.8779ZM439.796 27.8703C439.505 28.1059 439.178 28.3038 438.851 28.4907C437.453 29.2906 436.094 30.1449 434.924 31.267C434.354 31.8156 433.666 31.9951 432.904 31.9859C432.686 31.9712 432.463 31.973 432.243 31.9445C431.439 31.8405 430.967 31.3784 430.793 30.5886C430.651 29.9359 430.697 29.2869 430.836 28.6509C431.219 26.912 431.237 25.1464 431.257 23.3827C431.268 22.5828 431.459 22.3416 432.35 22.3729C432.971 22.3932 433.052 22.4806 432.984 23.0808C432.905 23.8273 433.457 24.3861 434.303 24.4671C435.24 24.5592 435.836 24.0262 436.387 23.3901C436.502 23.2557 436.583 23.0937 436.685 22.9464C436.931 22.5902 437.417 22.6104 437.586 23.0108C437.686 23.252 437.74 23.5447 437.71 23.8034C437.637 24.399 437.879 24.8583 438.281 25.2348C438.731 25.6555 439.206 26.0596 439.708 26.4177C440.283 26.8292 440.354 27.4183 439.796 27.8703ZM425.042 11.3819C425.847 11.5237 426.578 11.3423 427.254 10.8766C427.616 10.6271 427.991 10.3767 428.397 10.2202C429.011 9.98273 429.329 9.58231 429.375 8.9315C429.415 8.39576 429.316 8.19601 428.803 7.99165C428.551 7.88947 428.29 7.80294 427.98 7.69156C428.404 7.54612 428.652 7.31415 428.69 6.9082C428.724 6.52158 428.608 6.17639 428.352 5.89195C428.115 5.63328 427.794 5.64893 427.498 5.75019C427.167 5.86341 427.074 6.17455 427.048 6.48568C427.025 6.75908 427.043 7.03523 427.043 7.31047C426.215 6.78761 425.348 6.83732 424.466 7.17607C424.431 6.86125 424.429 6.54275 424.35 6.24451C424.256 5.88458 423.915 5.67102 423.622 5.71981C423.338 5.76584 423.151 6.04844 423.138 6.44334C423.118 6.97724 423.366 7.38871 423.747 7.75416C423.55 7.92261 423.364 8.07542 423.184 8.23375C422.59 8.75384 422.543 9.3126 423.1 9.88792C423.545 10.3463 424.033 10.767 424.522 11.1803C424.66 11.2945 424.864 11.3525 425.042 11.3819ZM427.991 5.94442C428.091 6.01254 428.211 6.065 428.282 6.15614C428.329 6.21505 428.303 6.33011 428.313 6.42217C428.28 6.42861 428.246 6.43597 428.213 6.44334C428.116 6.30894 428.015 6.17363 427.917 6.03923C427.943 6.00609 427.968 5.97387 427.991 5.94442ZM425.908 7.28745C426.068 7.31047 426.235 7.31415 426.385 7.36846C426.443 7.38963 426.461 7.52311 426.497 7.60779C426.466 7.63081 426.436 7.65566 426.404 7.67959C426.227 7.59123 426.049 7.50654 425.872 7.41817C425.883 7.37214 425.896 7.3298 425.908 7.28745ZM424.68 7.38871C424.761 7.34545 424.873 7.35649 424.969 7.34176C424.982 7.37214 424.992 7.40068 425.004 7.43013C424.929 7.49089 424.862 7.57373 424.775 7.60595C424.699 7.63449 424.601 7.60779 424.513 7.60411C424.567 7.53047 424.608 7.43013 424.68 7.38871ZM423.735 6.05948C423.752 6.03739 423.767 6.01438 423.784 5.9932C423.866 6.02542 423.995 6.03923 424.02 6.09354C424.078 6.22794 424.087 6.38442 424.116 6.53263C424.078 6.53263 424.042 6.53263 424.006 6.53079C423.915 6.37338 423.826 6.21505 423.735 6.05948ZM422.848 9.29234C422.879 9.26381 422.91 9.23435 422.941 9.20582C423.038 9.27301 423.145 9.33377 423.232 9.41477C424.204 10.2994 425.291 10.3261 426.42 9.80691C427.104 9.49026 427.749 9.09167 428.419 8.74095C428.558 8.66731 428.722 8.64522 428.876 8.59735C428.892 8.63141 428.903 8.66363 428.917 8.69769C428.866 8.7566 428.825 8.83393 428.761 8.87351C427.825 9.45067 426.918 10.0978 425.822 10.3463C424.808 10.5746 423.88 10.4025 423.113 9.64859C423.006 9.54917 422.934 9.41109 422.848 9.29234ZM430.554 26.7758C430.393 28.0488 430.241 29.2529 430.084 30.5011C428.167 30.0197 426.176 30.4486 424.215 30.444C424.172 29.8991 424.128 29.3449 424.084 28.7862C426.485 29.0807 428.683 28.5395 430.554 26.7758ZM422.201 24.4579C422.516 24.7175 422.828 24.9854 423.124 25.267C423.402 25.5331 423.477 25.8801 423.432 26.2511C423.394 26.5668 423.101 26.8476 422.79 26.8347C422.697 26.831 422.586 26.7113 422.526 26.6193C421.834 25.5423 421.152 24.4579 420.461 23.3809C420.302 23.1333 420.121 22.9013 419.949 22.6638C419.957 22.6509 419.965 22.639 419.972 22.6261C420.717 23.2364 421.462 23.843 422.201 24.4579Z" fill="#3C74FE"/>
</g>
<g clip-path="url(#clip2)">
<path d="M22.666 12.0013H9.33351C8.96554 12.0013 8.66687 12.3 8.66687 12.668V23.334C8.66687 24.9445 9.81348 26.2898 11.3334 26.6004V30.0002C11.3334 31.1028 12.2306 32.0001 13.3332 32.0001C14.4359 32.0001 15.3331 31.1028 15.3331 30.0002V26.6671H16.6663V30.0002C16.6663 31.1028 17.5636 32.0001 18.6662 32.0001C19.7688 32.0001 20.6661 31.1028 20.6661 30.0002V26.6004C22.186 26.2911 23.3326 24.9445 23.3326 23.334V12.668C23.3326 12.2987 23.034 12.0013 22.666 12.0013Z" fill="#3C74FE"/>
<path d="M19.4888 3.55249L20.6127 0.929976C20.758 0.591311 20.6007 0.200712 20.262 0.0553463C19.9274 -0.0913315 19.5314 0.0660331 19.3874 0.406011L18.2635 3.02984C17.5502 2.79785 16.7903 2.66855 16.0009 2.66855C15.2117 2.66855 14.4517 2.79785 13.7384 3.02984L12.6119 0.406011C12.4679 0.0660331 12.072 -0.0926439 11.7373 0.0553463C11.3986 0.200649 11.2426 0.592623 11.388 0.929976L12.5119 3.55249C10.2228 4.79509 8.66687 7.22025 8.66687 10.0014C8.66687 10.3693 8.96554 10.668 9.33351 10.668H22.6659C23.0339 10.668 23.3326 10.3693 23.3326 10.0014C23.3325 7.22025 21.7766 4.79509 19.4888 3.55249ZM13.3332 8.00151C12.9652 8.00151 12.6665 7.70284 12.6665 7.33486C12.6665 6.96689 12.9652 6.66822 13.3332 6.66822C13.7012 6.66822 13.9998 6.96689 13.9998 7.33486C13.9998 7.70284 13.7012 8.00151 13.3332 8.00151ZM18.6662 8.00151C18.2982 8.00151 17.9996 7.70284 17.9996 7.33486C17.9996 6.96689 18.2982 6.66822 18.6662 6.66822C19.0342 6.66822 19.3329 6.96689 19.3329 7.33486C19.3329 7.70284 19.0342 8.00151 18.6662 8.00151Z" fill="#3C74FE"/>
<path d="M26.6658 12.0013C25.5631 12.0013 24.6659 12.8986 24.6659 14.0012V20.6675C24.6659 21.7701 25.5631 22.6673 26.6658 22.6673C27.7684 22.6673 28.6656 21.7701 28.6656 20.6675V14.0012C28.6656 12.8987 27.7684 12.0013 26.6658 12.0013Z" fill="#3C74FE"/>
<path d="M5.33373 12.0013C4.23112 12.0013 3.33386 12.8986 3.33386 14.0012V20.6675C3.33386 21.7701 4.23112 22.6673 5.33373 22.6673C6.43634 22.6673 7.3336 21.7701 7.3336 20.6675V14.0012C7.3336 12.8987 6.43634 12.0013 5.33373 12.0013Z" fill="#3C74FE"/>
</g>
<g clip-path="url(#clip3)">
<path d="M58.6667 27.5964L71.7822 29.404V16.8848H58.6667V27.5964Z" fill="#3C74FE"/>
<path d="M58.6667 15.2692H71.7822V2.59619L58.6667 4.40378V15.2692Z" fill="#3C74FE"/>
<path d="M73.2244 29.5965L90.6666 32.0001V16.8848V16.8846H73.2244V29.5965Z" fill="#3C74FE"/>
<path d="M73.2246 2.40383V15.2692H90.6667V0L73.2246 2.40383Z" fill="#3C74FE"/>
</g>
<g clip-path="url(#clip4)">
<path d="M256.929 0.695923C260.019 2.79592 261.799 8.33392 261.799 12.5219C261.799 13.5919 261.659 14.6359 261.409 15.6099C261.185 13.1759 259.933 11.0339 258.069 9.64192C259.099 11.0319 259.711 12.7439 259.711 14.6079C259.711 19.2139 255.969 22.9559 251.363 22.9559C249.499 22.9559 248.581 22.5939 247.189 21.5639C250.013 21.5639 251.751 18.7819 254.145 18.7819C254.145 18.7819 253.799 17.3899 252.059 17.3899C250.319 17.3899 251.141 18.7819 247.885 18.7819C244.629 18.7819 243.015 16.8199 243.015 15.3039C243.015 13.7879 245.269 12.6879 245.797 13.2179C246.271 12.7439 245.797 11.8259 245.797 11.8259L249.973 9.04392C249.973 9.04392 249.277 9.04392 248.581 9.04392C242.403 9.04392 245.951 4.71592 247.189 3.47792C244.977 3.47792 243.585 5.52392 243.013 6.25992C242.665 6.09392 240.231 6.09392 239.535 6.25992C239.229 6.32992 238.799 5.78792 238.395 5.03592C237.895 4.08992 237.449 2.82392 237.449 2.08592C235.683 3.85392 235.989 6.49792 236.685 7.53992C236.657 7.56792 236.629 7.60992 236.615 7.65192C235.377 9.91992 234.667 12.5359 234.667 15.3039C234.667 24.1379 241.833 31.3039 250.667 31.3039C259.501 31.3039 266.667 24.8339 266.667 15.9999C266.667 15.8459 266.667 14.7619 266.667 14.6079C266.667 6.34792 261.381 2.02992 256.929 0.695923Z" fill="#3C74FE"/>
</g>
<path d="M128.912 32C124.149 31.9726 120.21 22.2506 120.21 17.2994C120.21 9.21169 126.277 7.44106 128.615 7.44106C129.669 7.44106 130.794 7.85487 131.787 8.22106C132.481 8.4765 133.198 8.74019 133.597 8.74019C133.836 8.74019 134.399 8.51587 134.897 8.31906C135.957 7.897 137.276 7.37244 138.812 7.37244C138.815 7.37244 138.819 7.37244 138.821 7.37244C139.969 7.37244 143.447 7.62419 145.538 10.7644L146.028 11.5005L145.323 12.0324C144.316 12.7923 142.478 14.1784 142.478 16.9241C142.478 20.1761 144.559 21.4267 145.559 22.0282C146 22.2937 146.457 22.5674 146.457 23.1662C146.457 23.5571 143.337 31.9515 138.806 31.9515C137.697 31.9515 136.913 31.6183 136.222 31.3244C135.523 31.0269 134.919 30.7705 133.922 30.7705C133.417 30.7705 132.778 31.0095 132.101 31.2631C131.177 31.6082 130.13 32 128.943 32H128.912Z" fill="#3C74FE"/>
<path d="M139.292 0C139.41 4.25475 136.367 7.2065 133.328 7.02138C132.827 3.62594 136.367 0 139.292 0Z" fill="#3C74FE"/>
<g clip-path="url(#clip5)">
<path d="M309.333 21.3125C312.267 21.3125 314.646 18.934 314.646 16C314.646 13.066 312.267 10.6875 309.333 10.6875C306.399 10.6875 304.021 13.066 304.021 16C304.021 18.934 306.399 21.3125 309.333 21.3125Z" fill="#3C74FE"/>
<path d="M302.312 14.4632C303.018 11.2361 305.898 8.8125 309.333 8.8125H323.637C322.878 7.30581 321.875 5.91388 320.647 4.68625C317.625 1.66431 313.607 0 309.333 0C305.06 0 301.042 1.66431 298.02 4.68625C297.729 4.97687 297.451 5.27687 297.186 5.58525L302.312 14.4632Z" fill="#3C74FE"/>
<path d="M311.513 22.8492C310.825 23.0686 310.093 23.1875 309.333 23.1875C306.663 23.1875 304.329 21.7241 303.09 19.5573C303.081 19.5436 303.072 19.53 303.064 19.5158L295.959 7.20996C294.251 9.79746 293.333 12.8281 293.333 16C293.333 20.2737 294.998 24.2916 298.02 27.3137C300.335 29.6288 303.235 31.146 306.386 31.7296L311.513 22.8492Z" fill="#3C74FE"/>
<path d="M314.17 10.6875C315.613 12.003 316.521 13.8975 316.521 16C316.521 17.3224 316.161 18.5622 315.536 19.6278C315.529 19.64 315.524 19.6524 315.517 19.6645L308.411 31.973C308.717 31.9902 309.024 32 309.333 32C313.607 32 317.625 30.3357 320.647 27.3137C323.669 24.2917 325.333 20.2738 325.333 16C325.333 14.1621 325.025 12.3719 324.434 10.6875H314.17Z" fill="#3C74FE"/>
</g>
<path fill-rule="evenodd" clip-rule="evenodd" d="M208 16C208 24.8366 200.836 32 192 32C183.163 32 176 24.8366 176 16C176 7.16344 183.163 0 192 0C200.836 0 208 7.16344 208 16ZM193.353 11.0706H193.815V11.4363C193.815 11.6293 193.758 11.7868 193.644 11.9087C193.535 12.0255 193.381 12.0839 193.182 12.0839C192.814 12.0839 192.63 11.9214 192.63 11.5963C192.63 11.4439 192.692 11.3195 192.816 11.223C192.941 11.1214 193.12 11.0706 193.353 11.0706ZM191.981 9.0668V9.91251C192.319 9.68394 192.69 9.56965 193.092 9.56965C193.356 9.56965 193.542 9.62553 193.651 9.73727C193.761 9.84902 193.815 10.0116 193.815 10.2249V10.4611H193.264C192.757 10.4611 192.369 10.5652 192.1 10.7735C191.832 10.9817 191.698 11.2687 191.698 11.6344C191.698 11.9595 191.802 12.2287 192.011 12.442C192.225 12.6554 192.511 12.762 192.869 12.762C193.351 12.762 193.679 12.597 193.853 12.2668V12.7316H194.74V10.263C194.74 9.28775 194.228 8.80013 193.204 8.80013C192.672 8.80013 192.265 8.88902 191.981 9.0668ZM186.495 9.47822V8.8687H185.6V12.7316H186.495V10.6592C186.495 10.2884 186.572 10.0166 186.726 9.84394C186.88 9.67124 187.054 9.58489 187.248 9.58489C187.636 9.58489 187.83 9.84394 187.83 10.362V12.7316H188.732V10.6592C188.732 10.2884 188.806 10.0166 188.956 9.84394C189.11 9.67124 189.284 9.58489 189.477 9.58489C189.865 9.58489 190.059 9.84394 190.059 10.362V12.7316H190.961V10.1868C190.961 9.74997 190.857 9.41473 190.648 9.18108C190.439 8.94235 190.144 8.82299 189.761 8.82299C189.507 8.82299 189.281 8.88648 189.082 9.01346C188.883 9.14045 188.734 9.32076 188.635 9.55442C188.471 9.0668 188.113 8.82299 187.561 8.82299C187.064 8.82299 186.709 9.0414 186.495 9.47822ZM196.379 10.8116C196.389 11.1773 196.496 11.4719 196.7 11.6954C196.909 11.9189 197.19 12.0306 197.543 12.0306C197.851 12.0306 198.137 11.9443 198.4 11.7716V12.5639C198.137 12.7214 197.809 12.8001 197.416 12.8001C196.834 12.8001 196.362 12.6122 195.999 12.2363C195.641 11.8604 195.462 11.3855 195.462 10.8116C195.467 10.2477 195.646 9.77283 195.999 9.3868C196.357 9.00076 196.844 8.80775 197.461 8.80775C197.828 8.80775 198.142 8.87886 198.4 9.02108V9.8287C198.152 9.66616 197.868 9.58489 197.55 9.58489C197.202 9.58489 196.921 9.69664 196.707 9.92013C196.494 10.1436 196.384 10.4408 196.379 10.8116ZM186.536 16.295C185.912 17.025 185.6 17.9933 185.6 19.1999C185.6 20.3987 185.916 21.3632 186.546 22.0932C187.177 22.8233 188.019 23.1883 189.07 23.1883C190.122 23.1883 190.959 22.8233 191.583 22.0932C192.214 21.3632 192.53 20.3987 192.53 19.1999C192.53 17.9857 192.218 17.0174 191.594 16.295C190.97 15.5649 190.125 15.1999 189.059 15.1999C188.008 15.1999 187.167 15.5649 186.536 16.295ZM187.613 21.1365C187.25 20.66 187.069 20.0145 187.069 19.1999C187.069 18.3776 187.246 17.7282 187.602 17.2517C187.957 16.7753 188.443 16.537 189.059 16.537C189.683 16.537 190.173 16.7753 190.528 17.2517C190.883 17.7282 191.061 18.3776 191.061 19.1999C191.061 20.0222 190.883 20.6715 190.528 21.148C190.173 21.6168 189.687 21.8512 189.07 21.8512C188.461 21.8512 187.975 21.6129 187.613 21.1365ZM198.052 17.0673V15.661C197.552 15.4074 196.957 15.2806 196.268 15.2806C195.506 15.2806 194.894 15.4804 194.429 15.88C193.973 16.2796 193.744 16.8099 193.744 17.4708C193.744 17.7858 193.791 18.0663 193.886 18.3123C193.987 18.5582 194.136 18.7695 194.332 18.9463C194.527 19.123 194.709 19.2652 194.875 19.3728C195.042 19.4727 195.26 19.588 195.528 19.7186C195.564 19.734 195.619 19.7609 195.691 19.7993C195.952 19.9223 196.123 20.0068 196.203 20.0529C196.29 20.099 196.409 20.1759 196.562 20.2834C196.721 20.391 196.826 20.4986 196.877 20.6062C196.928 20.7138 196.953 20.8368 196.953 20.9751C196.953 21.2671 196.852 21.5015 196.649 21.6783C196.446 21.8473 196.177 21.9319 195.844 21.9319C195.104 21.9319 194.422 21.6936 193.799 21.2172V22.7042C194.342 23.0346 195.028 23.1999 195.855 23.1999C196.616 23.1999 197.229 22.9962 197.693 22.5889C198.164 22.1739 198.4 21.6206 198.4 20.929C198.4 20.5985 198.346 20.3065 198.237 20.0529C198.135 19.7916 197.976 19.5687 197.758 19.3843C197.548 19.1999 197.352 19.0577 197.171 18.9578C196.99 18.8502 196.754 18.7272 196.464 18.5889C196.05 18.3891 195.739 18.2085 195.528 18.0471C195.325 17.8781 195.224 17.6667 195.224 17.4131C195.224 17.1595 195.318 16.952 195.506 16.7906C195.702 16.6293 195.971 16.5486 196.311 16.5486C196.928 16.5486 197.508 16.7215 198.052 17.0673Z" fill="#3C74FE"/>
<defs>
<clipPath id="clip0">
<rect width="32" height="32" fill="white" transform="translate(352)"/>
</clipPath>
<clipPath id="clip1">
<rect width="32" height="32" fill="white" transform="translate(410.667)"/>
</clipPath>
<clipPath id="clip2">
<rect width="32" height="32" fill="white"/>
</clipPath>
<clipPath id="clip3">
<rect width="32" height="32" fill="white" transform="translate(58.6666)"/>
</clipPath>
<clipPath id="clip4">
<rect width="32" height="32" fill="white" transform="translate(234.667)"/>
</clipPath>
<clipPath id="clip5">
<rect width="32" height="32" fill="white" transform="translate(293.333)"/>
</clipPath>
</defs>
</svg>
