<svg width="60" height="60" viewBox="0 0 60 60" fill="none" xmlns="http://www.w3.org/2000/svg">
<path d="M7.89396 34.5323L11.4378 31.6972C11.5974 31.5695 11.7957 31.5 12 31.5H15.6C16.0971 31.5 16.5 31.9029 16.5 32.4C16.5 32.897 16.0971 33.3 15.6 33.3H12.3157L8.92953 36.009C9.16791 36.5578 9.30005 37.1635 9.30005 37.8C9.30005 40.2853 7.28533 42.3 4.80005 42.3C2.31477 42.3 0.300049 40.2853 0.300049 37.8C0.300049 35.3147 2.31477 33.3 4.80005 33.3C5.99849 33.3 7.08751 33.7684 7.89396 34.5323ZM4.80005 40.5C6.29122 40.5 7.50005 39.2911 7.50005 37.8C7.50005 36.3088 6.29122 35.1 4.80005 35.1C3.30888 35.1 2.10005 36.3088 2.10005 37.8C2.10005 39.2911 3.30888 40.5 4.80005 40.5ZM47.1901 53.1H39C38.6732 53.1 38.3721 52.9228 38.2133 52.6371L33.7133 44.5371C33.4719 44.1026 33.6285 43.5546 34.063 43.3132C34.4975 43.0719 35.0454 43.2284 35.2868 43.6629L39.5296 51.3H47.1901C47.607 49.246 49.423 47.7 51.6001 47.7C54.0853 47.7 56.1001 49.7147 56.1001 52.2C56.1001 54.6853 54.0853 56.7 51.6001 56.7C49.423 56.7 47.607 55.154 47.1901 53.1ZM51.6001 54.9C53.0912 54.9 54.3001 53.6911 54.3001 52.2C54.3001 50.7088 53.0912 49.5 51.6001 49.5C50.1089 49.5 48.9001 50.7088 48.9001 52.2C48.9001 53.6911 50.1089 54.9 51.6001 54.9ZM16.6956 49.0655L21.1627 42.6838C21.4478 42.2766 22.009 42.1776 22.4162 42.4627C22.8234 42.7477 22.9224 43.3089 22.6374 43.7161L18.1178 50.1726C18.7925 50.9595 19.2001 51.9821 19.2001 53.1C19.2001 55.5853 17.1853 57.6 14.7 57.6C12.2148 57.6 10.2 55.5853 10.2 53.1C10.2 50.6147 12.2148 48.6 14.7 48.6C15.4167 48.6 16.0942 48.7675 16.6956 49.0655ZM14.7 55.8C16.1912 55.8 17.4 54.5911 17.4 53.1C17.4 51.6088 16.1912 50.4 14.7 50.4C13.2089 50.4 12 51.6088 12 53.1C12 54.5911 13.2089 55.8 14.7 55.8ZM47.1901 9.89998H39.5563L36.205 16.6025C35.9828 17.047 35.4421 17.2272 34.9976 17.0049C34.553 16.7827 34.3728 16.2421 34.5951 15.7975L38.1951 8.59749C38.3475 8.29259 38.6592 8.09998 39 8.09998H47.1901C47.607 6.04596 49.423 4.49998 51.6001 4.49998C54.0853 4.49998 56.1001 6.51469 56.1001 8.99998C56.1001 11.4853 54.0853 13.5 51.6001 13.5C49.423 13.5 47.607 11.954 47.1901 9.89998ZM51.6001 11.7C53.0912 11.7 54.3001 10.4911 54.3001 8.99998C54.3001 7.50881 53.0912 6.29998 51.6001 6.29998C50.1089 6.29998 48.9001 7.50881 48.9001 8.99998C48.9001 10.4911 50.1089 11.7 51.6001 11.7ZM9.30005 12.5099C7.24603 12.093 5.70005 10.277 5.70005 8.09998C5.70005 5.61469 7.71477 3.59998 10.2 3.59998C12.6853 3.59998 14.7 5.61469 14.7 8.09998C14.7 10.277 13.1541 12.093 11.1 12.5099V21.0065L16.8546 23.4728C17.3114 23.6686 17.5231 24.1976 17.3273 24.6545C17.1315 25.1114 16.6024 25.323 16.1455 25.1272L9.84552 22.4272C9.5146 22.2854 9.30005 21.96 9.30005 21.6V12.5099ZM10.2 10.8C11.6912 10.8 12.9 9.59114 12.9 8.09998C12.9 6.60881 11.6912 5.39998 10.2 5.39998C8.70888 5.39998 7.50005 6.60881 7.50005 8.09998C7.50005 9.59114 8.70888 10.8 10.2 10.8ZM52.7184 30.7544L49.5364 33.9364C49.3676 34.1051 49.1387 34.2 48.9001 34.2H44.4001C43.903 34.2 43.5 33.797 43.5 33.3C43.5 32.8029 43.903 32.4 44.4001 32.4H48.5273L51.4456 29.4816C50.9744 28.7702 50.7001 27.9171 50.7001 27C50.7001 24.5147 52.7148 22.5 55.2001 22.5C57.6853 22.5 59.7001 24.5147 59.7001 27C59.7001 29.4853 57.6853 31.5 55.2001 31.5C54.2829 31.5 53.4298 31.2256 52.7184 30.7544ZM55.2001 29.7C56.6912 29.7 57.9001 28.4911 57.9001 27C57.9001 25.5088 56.6912 24.3 55.2001 24.3C53.7089 24.3 52.5 25.5088 52.5 27C52.5 28.4911 53.7089 29.7 55.2001 29.7ZM30 38.7C25.0295 38.7 21 34.6705 21 29.7C21 24.7294 25.0295 20.7 30 20.7C34.9706 20.7 39 24.7294 39 29.7C39 34.6705 34.9706 38.7 30 38.7ZM25.585 35.3879C26.8042 36.3356 28.3362 36.9 30 36.9C33.9765 36.9 37.2001 33.6764 37.2001 29.7C37.2001 28.0361 36.6357 26.5041 35.6879 25.2849L25.585 35.3879ZM24.3122 34.1151L34.4151 24.0121C33.1959 23.0643 31.6639 22.5 30 22.5C26.0236 22.5 22.8 25.7235 22.8 29.7C22.8 31.3638 23.3644 32.8958 24.3122 34.1151Z" fill="#3C74FE" stroke="#3C74FE" stroke-width="0.6"/>
</svg>
