<svg width="42" height="42" viewBox="0 0 42 42" fill="none" xmlns="http://www.w3.org/2000/svg">
<path d="M28.3007 16.6113H26.3771C25.9587 16.6113 25.5608 16.8123 25.3147 17.1527L20.9999 23.1164L16.6851 17.1527C16.439 16.8123 16.0452 16.6113 15.6228 16.6113H13.6991C13.4325 16.6113 13.2767 16.9148 13.4325 17.1322L20.7333 27.2221C20.8646 27.4025 21.1312 27.4025 21.2624 27.2221L28.5632 17.1322C28.7231 16.9148 28.5673 16.6113 28.3007 16.6113Z" fill="white"/>
<path d="M21 2.625C10.8527 2.625 2.625 10.8527 2.625 21C2.625 31.1473 10.8527 39.375 21 39.375C31.1473 39.375 39.375 31.1473 39.375 21C39.375 10.8527 31.1473 2.625 21 2.625ZM21 36.2578C12.5754 36.2578 5.74219 29.4246 5.74219 21C5.74219 12.5754 12.5754 5.74219 21 5.74219C29.4246 5.74219 36.2578 12.5754 36.2578 21C36.2578 29.4246 29.4246 36.2578 21 36.2578Z" fill="white"/>
</svg>
