<svg width="60" height="60" viewBox="0 0 60 60" fill="none" xmlns="http://www.w3.org/2000/svg">
<path d="M48 22.8V14.4C48 7.1215 42.0785 1.20001 34.8 1.20001H25.2C17.9215 1.20001 12 7.1215 12 14.4V22.8C10.0149 22.8 8.40002 24.4149 8.40002 26.4V55.2C8.40002 57.1852 10.0149 58.8 12 58.8H48C49.9852 58.8 51.6 57.1852 51.6 55.2V26.4C51.6 24.4149 49.9852 22.8 48 22.8ZM14.4 14.4C14.4 8.44454 19.2451 3.60001 25.2 3.60001H34.8C40.7549 3.60001 45.6 8.44454 45.6 14.4V22.8H43.2V14.4C43.2 9.76876 39.4319 6.00001 34.8 6.00001H25.2C20.5682 6.00001 16.8 9.76876 16.8 14.4V22.8H14.4V14.4ZM40.8 22.8H19.2V14.4C19.2 11.0918 21.8918 8.40001 25.2 8.40001H34.8C38.1082 8.40001 40.8 11.0918 40.8 14.4V22.8ZM49.2 55.2C49.2 55.8621 48.6615 56.4 48 56.4H12C11.3385 56.4 10.8 55.8621 10.8 55.2V26.4C10.8 25.7379 11.3385 25.2 12 25.2H19.2H40.8H48C48.6615 25.2 49.2 25.7379 49.2 26.4V55.2Z" fill="#3C74FE"/>
<path d="M30 28.8C23.383 28.8 18 34.1836 18 40.8C18 47.4164 23.383 52.8 30 52.8C36.617 52.8 42 47.4164 42 40.8C42 34.1836 36.617 28.8 30 28.8ZM30 50.4C24.7066 50.4 20.4 46.0933 20.4 40.8C20.4 35.5066 24.7066 31.2 30 31.2C35.2934 31.2 39.6 35.5066 39.6 40.8C39.6 46.0933 35.2934 50.4 30 50.4Z" fill="#3C74FE"/>
<path d="M30.8063 39.6086H30.7523V36.2415C31.6721 36.3726 32.5249 36.7196 33.3135 37.2808L34.4781 35.6322C33.3076 34.8334 32.0657 34.3844 30.7523 34.2897V33.3758H29.6067V34.2707C28.4478 34.3305 27.5076 34.6891 26.7846 35.3465C26.0617 36.0024 25.7016 36.8478 25.7016 37.8799C25.7016 38.9133 26.015 39.6932 26.6418 40.2179C27.2686 40.7441 28.2569 41.1669 29.6067 41.489V44.964C28.5426 44.7978 27.5105 44.2775 26.5077 43.4058L25.2002 44.964C26.5004 46.0995 27.9697 46.7496 29.6067 46.9172V48.2247H30.7523V46.9347C31.9709 46.8749 32.949 46.5164 33.6895 45.8604C34.43 45.203 34.8002 44.3533 34.8002 43.3081C34.8002 42.263 34.4781 41.4656 33.8323 40.9162C33.1881 40.3681 32.1794 39.9307 30.8063 39.6086ZM29.6067 39.2865C28.9376 39.0722 28.4828 38.8477 28.2452 38.6145C28.0062 38.3813 27.8866 38.0664 27.8866 37.6656C27.8866 37.2662 28.0383 36.931 28.3429 36.6628C28.6475 36.3945 29.0688 36.2356 29.6067 36.1876V39.2865ZM32.1137 44.5165C31.7785 44.792 31.3252 44.9582 30.7523 45.0179V41.7936C31.468 42.0094 31.9578 42.2396 32.2216 42.4831C32.4841 42.7279 32.6152 43.0603 32.6152 43.4772C32.6152 43.8955 32.4476 44.2424 32.1137 44.5165Z" fill="#3C74FE"/>
</svg>
