<svg width="60" height="60" viewBox="0 0 60 60" fill="none" xmlns="http://www.w3.org/2000/svg">
<path d="M58.75 0H46.25C45.9185 0 45.6005 0.131696 45.3661 0.366117C45.1317 0.600537 45 0.918479 45 1.25V6.25H15V1.25C15 0.918479 14.8683 0.600537 14.6339 0.366117C14.3995 0.131696 14.0815 0 13.75 0L1.25 0C0.918479 0 0.600537 0.131696 0.366117 0.366117C0.131696 0.600537 0 0.918479 0 1.25L0 13.75C0 14.0815 0.131696 14.3995 0.366117 14.6339C0.600537 14.8683 0.918479 15 1.25 15H13.2325L15.3663 17.1337C15.602 17.3614 15.9178 17.4874 16.2455 17.4846C16.5732 17.4817 16.8868 17.3503 17.1185 17.1185C17.3503 16.8868 17.4817 16.5732 17.4846 16.2455C17.4874 15.9178 17.3614 15.602 17.1337 15.3663L15 13.2325V8.75H45V13.2325L42.8662 15.3663C42.7469 15.4816 42.6516 15.6195 42.5861 15.772C42.5206 15.9245 42.4861 16.0885 42.4847 16.2545C42.4832 16.4205 42.5149 16.5851 42.5777 16.7387C42.6406 16.8923 42.7334 17.0319 42.8508 17.1492C42.9681 17.2666 43.1077 17.3594 43.2613 17.4223C43.4149 17.4851 43.5795 17.5168 43.7455 17.5153C43.9115 17.5139 44.0755 17.4794 44.228 17.4139C44.3805 17.3484 44.5184 17.2531 44.6338 17.1337L46.7675 15H58.75C59.0815 15 59.3995 14.8683 59.6339 14.6339C59.8683 14.3995 60 14.0815 60 13.75V1.25C60 0.918479 59.8683 0.600537 59.6339 0.366117C59.3995 0.131696 59.0815 0 58.75 0V0ZM2.5 2.5H12.5V12.5H2.5V2.5ZM57.5 12.5H47.5V2.5H57.5V12.5Z" fill="#3C74FE"/>
<path d="M58.75 45.0003H46.7675L44.6338 42.8665C44.398 42.6388 44.0822 42.5128 43.7545 42.5157C43.4268 42.5185 43.1132 42.65 42.8815 42.8817C42.6497 43.1135 42.5183 43.427 42.5154 43.7548C42.5126 44.0825 42.6385 44.3983 42.8662 44.634L45 46.7678V51.2503H15V46.7678L17.1337 44.634C17.3614 44.3983 17.4874 44.0825 17.4846 43.7548C17.4817 43.427 17.3503 43.1135 17.1185 42.8817C16.8868 42.65 16.5732 42.5185 16.2455 42.5157C15.9178 42.5128 15.602 42.6388 15.3663 42.8665L13.2325 45.0003H1.25C0.918479 45.0003 0.600537 45.132 0.366117 45.3664C0.131696 45.6008 0 45.9187 0 46.2503L0 58.7503C0 59.0818 0.131696 59.3997 0.366117 59.6341C0.600537 59.8686 0.918479 60.0003 1.25 60.0003H13.75C14.0815 60.0003 14.3995 59.8686 14.6339 59.6341C14.8683 59.3997 15 59.0818 15 58.7503V53.7503H45V58.7503C45 59.0818 45.1317 59.3997 45.3661 59.6341C45.6005 59.8686 45.9185 60.0003 46.25 60.0003H58.75C59.0815 60.0003 59.3995 59.8686 59.6339 59.6341C59.8683 59.3997 60 59.0818 60 58.7503V46.2503C60 45.9187 59.8683 45.6008 59.6339 45.3664C59.3995 45.132 59.0815 45.0003 58.75 45.0003ZM12.5 57.5003H2.5V47.5003H12.5V57.5003ZM57.5 57.5003H47.5V47.5003H57.5V57.5003Z" fill="#3C74FE"/>
<path d="M32.5 15.0002H27.5C25.843 15.0022 24.2544 15.6613 23.0828 16.833C21.9111 18.0047 21.252 19.5933 21.25 21.2502V27.7302C20.5214 27.9878 19.8901 28.4643 19.4426 29.0944C18.9951 29.7245 18.7532 30.4774 18.75 31.2502V41.2502C18.75 42.2448 19.1451 43.1986 19.8483 43.9019C20.5516 44.6052 21.5054 45.0002 22.5 45.0002H37.5C38.4946 45.0002 39.4484 44.6052 40.1516 43.9019C40.8549 43.1986 41.25 42.2448 41.25 41.2502V31.2502C41.2468 30.4774 41.0049 29.7245 40.5574 29.0944C40.1099 28.4643 39.4786 27.9878 38.75 27.7302V21.2502C38.748 19.5933 38.0889 18.0047 36.9172 16.833C35.7456 15.6613 34.157 15.0022 32.5 15.0002ZM38.75 41.2502C38.75 41.5818 38.6183 41.8997 38.3839 42.1341C38.1495 42.3685 37.8315 42.5002 37.5 42.5002H22.5C22.1685 42.5002 21.8505 42.3685 21.6161 42.1341C21.3817 41.8997 21.25 41.5818 21.25 41.2502V31.2502C21.25 30.9187 21.3817 30.6008 21.6161 30.3664C21.8505 30.1319 22.1685 30.0002 22.5 30.0002H32.5C32.8315 30.0002 33.1495 29.8685 33.3839 29.6341C33.6183 29.3997 33.75 29.0818 33.75 28.7502C33.75 28.4187 33.6183 28.1008 33.3839 27.8664C33.1495 27.6319 32.8315 27.5002 32.5 27.5002H23.75V21.2502C23.75 20.2557 24.1451 19.3019 24.8483 18.5986C25.5516 17.8953 26.5054 17.5002 27.5 17.5002H32.5C33.4946 17.5002 34.4484 17.8953 35.1517 18.5986C35.8549 19.3019 36.25 20.2557 36.25 21.2502V28.7502C36.25 29.0818 36.3817 29.3997 36.6161 29.6341C36.8505 29.8685 37.1685 30.0002 37.5 30.0002C37.8315 30.0002 38.1495 30.1319 38.3839 30.3664C38.6183 30.6008 38.75 30.9187 38.75 31.2502V41.2502Z" fill="#3C74FE"/>
<path d="M30 32.5002C29.2583 32.5002 28.5333 32.7202 27.9166 33.1322C27.2999 33.5443 26.8193 34.13 26.5355 34.8152C26.2516 35.5004 26.1774 36.2544 26.3221 36.9818C26.4668 37.7093 26.8239 38.3774 27.3484 38.9019C27.8728 39.4263 28.541 39.7835 29.2684 39.9282C29.9958 40.0729 30.7498 39.9986 31.4351 39.7148C32.1203 39.431 32.706 38.9503 33.118 38.3336C33.5301 37.7169 33.75 36.9919 33.75 36.2502C33.75 35.2557 33.3549 34.3019 32.6517 33.5986C31.9484 32.8953 30.9946 32.5002 30 32.5002ZM30 37.5002C29.7528 37.5002 29.5111 37.4269 29.3055 37.2896C29.1 37.1522 28.9398 36.957 28.8452 36.7286C28.7505 36.5002 28.7258 36.2489 28.774 36.0064C28.8223 35.7639 28.9413 35.5412 29.1161 35.3664C29.2909 35.1915 29.5137 35.0725 29.7561 35.0243C29.9986 34.976 30.2499 35.0008 30.4784 35.0954C30.7068 35.19 30.902 35.3502 31.0393 35.5558C31.1767 35.7613 31.25 36.003 31.25 36.2502C31.25 36.5818 31.1183 36.8997 30.8839 37.1341C30.6495 37.3685 30.3315 37.5002 30 37.5002Z" fill="#3C74FE"/>
</svg>
